<?xml version="1.0" encoding="utf-8"?>
<!-- Generator: Adobe Illustrator 27.5.0, SVG Export Plug-In . SVG Version: 6.00 Build 0)  -->
<svg version="1.1" id="Ñëîé_1" xmlns="http://www.w3.org/2000/svg" xmlns:xlink="http://www.w3.org/1999/xlink" x="0px" y="0px"
	 viewBox="0 0 600 450" style="enable-background:new 0 0 600 450;" xml:space="preserve">
<g>
	<g>
		<linearGradient id="SVGID_1_" gradientUnits="userSpaceOnUse" x1="88.4528" y1="286.9404" x2="519.9487" y2="286.9404">
			<stop  offset="0" style="stop-color:#59BDEF"/>
			<stop  offset="1" style="stop-color:#7BDAFF"/>
		</linearGradient>
		<path style="opacity:0.3;fill:url(#SVGID_1_);" d="M515.267,335.639l-126.692,73.175c-5.659,3.267-14.22,3.622-19.121,0.793
			L91.761,249.281c-4.901-2.83-4.286-7.772,1.373-11.04l126.692-73.175c5.659-3.267,14.22-3.622,19.121-0.793L516.64,324.6
			C521.541,327.43,520.926,332.372,515.267,335.639z"/>
		
			<linearGradient id="SVGID_00000160880102329927429870000002541612519473587120_" gradientUnits="userSpaceOnUse" x1="104.597" y1="247.0662" x2="518.354" y2="247.0662">
			<stop  offset="0" style="stop-color:#3A9BD5"/>
			<stop  offset="0.3002" style="stop-color:#3796D1"/>
			<stop  offset="0.6734" style="stop-color:#2F86C7"/>
			<stop  offset="1" style="stop-color:#2573BA"/>
		</linearGradient>
		<path style="fill:url(#SVGID_00000160880102329927429870000002541612519473587120_);" d="M519.949,276.111l-26.101-4.544
			L238.947,124.4c-4.901-2.83-13.462-2.475-19.121,0.793l-118.079,68.202l-13.292-2.314l-0.001,13.503l0.012,0.002
			c-0.01,1.806,1.065,3.533,3.296,4.821l277.693,160.326c4.901,2.829,13.462,2.475,19.121-0.793l126.692-73.175
			c3.143-1.814,4.723-4.145,4.674-6.344l0.008,0.001V276.111z"/>
		
			<linearGradient id="SVGID_00000095303183053249318120000017168774546105180565_" gradientUnits="userSpaceOnUse" x1="1782.6104" y1="-248.4793" x2="2023.7476" y2="-121.4239" gradientTransform="matrix(1 -0.5774 0.866 0.5 -1439.6554 1425.2062)">
			<stop  offset="0" style="stop-color:#59BDEF"/>
			<stop  offset="1" style="stop-color:#7BDAFF"/>
		</linearGradient>
		<path style="fill:url(#SVGID_00000095303183053249318120000017168774546105180565_);" d="M515.267,282.352l-126.692,73.175
			c-5.659,3.267-14.22,3.622-19.121,0.793L91.761,195.993c-4.901-2.83-4.286-7.772,1.373-11.039l126.692-73.175
			c5.659-3.267,14.22-3.622,19.121-0.793L516.64,271.312C521.541,274.142,520.926,279.084,515.267,282.352z"/>
		<path style="fill:#0063AD;" d="M175.469,144.945l-19.551,11.288c-0.849,0.49-2.133,0.543-2.868,0.119l-0.199-0.115
			c-0.735-0.424-0.643-1.166,0.206-1.656l19.551-11.288c0.849-0.49,2.133-0.543,2.868-0.119l0.199,0.115
			C176.41,143.714,176.318,144.455,175.469,144.945z"/>
		<g>
			<polygon style="fill:#FFFFFF;" points="128.799,198.06 126.331,199.485 120.484,196.11 122.953,194.684 			"/>
			<polygon style="fill:#FFFFFF;" points="133.346,195.435 130.878,196.86 125.031,193.484 127.5,192.059 			"/>
			<polygon style="fill:#FFFFFF;" points="137.893,192.809 135.425,194.234 129.578,190.859 132.047,189.434 			"/>
			<polygon style="fill:#FFFFFF;" points="142.44,190.184 139.972,191.609 134.125,188.234 136.594,186.809 			"/>
		</g>
	</g>
	<g style="opacity:0.5;">
		<defs>
			<path id="SVGID_00000009566653466636199710000017638057189391166905_" style="opacity:0.5;" d="M515.267,282.352l-126.692,73.175
				c-5.659,3.267-14.22,3.622-19.121,0.793L91.761,195.993c-4.901-2.83-4.286-7.772,1.373-11.039l126.692-73.175
				c5.659-3.267,14.22-3.622,19.121-0.793L516.64,271.312C521.541,274.142,520.926,279.084,515.267,282.352z"/>
		</defs>
		<clipPath id="SVGID_00000144338943395553331590000017324693997197708976_">
			<use xlink:href="#SVGID_00000009566653466636199710000017638057189391166905_"  style="overflow:visible;"/>
		</clipPath>
		<g style="clip-path:url(#SVGID_00000144338943395553331590000017324693997197708976_);">
			<g>
				
					<linearGradient id="SVGID_00000062179617396866085350000012048829208580406930_" gradientUnits="userSpaceOnUse" x1="323.9905" y1="319.2378" x2="393.1956" y2="319.2378">
					<stop  offset="0.4032" style="stop-color:#FD5A05"/>
					<stop  offset="0.423" style="stop-color:#FA5505"/>
					<stop  offset="0.5505" style="stop-color:#EC3D03"/>
					<stop  offset="0.6846" style="stop-color:#E22C01"/>
					<stop  offset="0.8286" style="stop-color:#DC2100"/>
					<stop  offset="1" style="stop-color:#DA1E00"/>
				</linearGradient>
				<path style="fill:url(#SVGID_00000062179617396866085350000012048829208580406930_);" d="M393.196,253.532h-69.205v111.448
					h0.018c-0.047,0.747,0.365,1.468,1.284,1.999l29.812,17.212c1.929,1.114,5.299,0.974,7.527-0.312l28.73-16.587
					c1.149-0.663,1.759-1.502,1.826-2.311h0.007V253.532z"/>
				
					<linearGradient id="SVGID_00000046309477769467448160000013078871914095822997_" gradientUnits="userSpaceOnUse" x1="328.0677" y1="207.4909" x2="401.949" y2="318.9079">
					<stop  offset="0.4032" style="stop-color:#FC8B04"/>
					<stop  offset="0.5099" style="stop-color:#FC7904"/>
					<stop  offset="0.6558" style="stop-color:#FD6805"/>
					<stop  offset="0.813" style="stop-color:#FD5D05"/>
					<stop  offset="1" style="stop-color:#FD5A05"/>
				</linearGradient>
				<path style="fill:url(#SVGID_00000046309477769467448160000013078871914095822997_);" d="M355.105,272.761l-29.812-17.212
					c-1.929-1.114-1.687-3.06,0.54-4.346l28.73-16.587c2.228-1.286,5.598-1.426,7.527-0.312l29.812,17.212
					c1.929,1.114,1.687,3.06-0.54,4.346l-28.73,16.588C360.405,273.735,357.034,273.875,355.105,272.761z"/>
				<path style="fill:#FFFFFF;" d="M391.363,254.579l-28.73,16.588c-2.228,1.286-5.598,1.426-7.527,0.312l-29.812-17.212
					c-0.612-0.353-0.98-0.794-1.162-1.267c-0.345,0.935,0.017,1.888,1.162,2.549l29.812,17.212c1.929,1.114,5.299,0.974,7.527-0.312
					l28.73-16.587c1.521-0.878,2.092-2.06,1.702-3.079C392.828,253.424,392.269,254.056,391.363,254.579z"/>
			</g>
			<g>
				
					<linearGradient id="SVGID_00000119094575421601641190000011881949563122460086_" gradientUnits="userSpaceOnUse" x1="229.271" y1="318.3357" x2="298.4761" y2="318.3357">
					<stop  offset="0.4032" style="stop-color:#FD5A05"/>
					<stop  offset="0.423" style="stop-color:#FA5505"/>
					<stop  offset="0.5505" style="stop-color:#EC3D03"/>
					<stop  offset="0.6846" style="stop-color:#E22C01"/>
					<stop  offset="0.8286" style="stop-color:#DC2100"/>
					<stop  offset="1" style="stop-color:#DA1E00"/>
				</linearGradient>
				<path style="fill:url(#SVGID_00000119094575421601641190000011881949563122460086_);" d="M298.476,252.63h-69.205v111.448h0.018
					c-0.047,0.747,0.365,1.468,1.284,1.999l29.812,17.212c1.929,1.114,5.299,0.974,7.527-0.312l28.73-16.587
					c1.149-0.663,1.759-1.502,1.826-2.311h0.007V252.63z"/>
				
					<linearGradient id="SVGID_00000116230702548922148160000013298772727069375412_" gradientUnits="userSpaceOnUse" x1="233.3483" y1="206.5888" x2="307.2295" y2="318.0057">
					<stop  offset="0.4032" style="stop-color:#FC8B04"/>
					<stop  offset="0.5099" style="stop-color:#FC7904"/>
					<stop  offset="0.6558" style="stop-color:#FD6805"/>
					<stop  offset="0.813" style="stop-color:#FD5D05"/>
					<stop  offset="1" style="stop-color:#FD5A05"/>
				</linearGradient>
				<path style="fill:url(#SVGID_00000116230702548922148160000013298772727069375412_);" d="M260.386,271.859l-29.812-17.212
					c-1.929-1.114-1.687-3.06,0.54-4.346l28.73-16.588c2.228-1.286,5.598-1.426,7.527-0.312l29.812,17.212
					c1.929,1.114,1.687,3.06-0.54,4.346l-28.73,16.587C265.685,272.833,262.315,272.973,260.386,271.859z"/>
				<path style="fill:#FFFFFF;" d="M296.643,253.677l-28.73,16.587c-2.228,1.286-5.598,1.426-7.527,0.312l-29.812-17.212
					c-0.612-0.353-0.98-0.794-1.161-1.267c-0.345,0.935,0.017,1.888,1.161,2.549l29.812,17.212c1.929,1.114,5.299,0.974,7.527-0.312
					l28.73-16.587c1.521-0.878,2.092-2.06,1.702-3.079C298.109,252.521,297.549,253.154,296.643,253.677z"/>
			</g>
			<g>
				
					<linearGradient id="SVGID_00000022560787752430965230000007710056019768122258_" gradientUnits="userSpaceOnUse" x1="276.6332" y1="345.8116" x2="345.8383" y2="345.8116">
					<stop  offset="0.4032" style="stop-color:#FD5A05"/>
					<stop  offset="0.423" style="stop-color:#FA5505"/>
					<stop  offset="0.5505" style="stop-color:#EC3D03"/>
					<stop  offset="0.6846" style="stop-color:#E22C01"/>
					<stop  offset="0.8286" style="stop-color:#DC2100"/>
					<stop  offset="1" style="stop-color:#DA1E00"/>
				</linearGradient>
				<path style="fill:url(#SVGID_00000022560787752430965230000007710056019768122258_);" d="M345.838,280.106h-69.205v111.448
					h0.018c-0.047,0.747,0.365,1.468,1.284,1.999l29.812,17.212c1.929,1.114,5.299,0.974,7.527-0.312l28.73-16.587
					c1.149-0.664,1.759-1.502,1.826-2.311h0.007V280.106z"/>
				
					<linearGradient id="SVGID_00000126296123921670732430000007159611781899235220_" gradientUnits="userSpaceOnUse" x1="280.7105" y1="234.0647" x2="354.5917" y2="345.4816">
					<stop  offset="0.4032" style="stop-color:#FC8B04"/>
					<stop  offset="0.5099" style="stop-color:#FC7904"/>
					<stop  offset="0.6558" style="stop-color:#FD6805"/>
					<stop  offset="0.813" style="stop-color:#FD5D05"/>
					<stop  offset="1" style="stop-color:#FD5A05"/>
				</linearGradient>
				<path style="fill:url(#SVGID_00000126296123921670732430000007159611781899235220_);" d="M307.748,299.335l-29.812-17.212
					c-1.929-1.114-1.687-3.06,0.54-4.346l28.73-16.587c2.228-1.286,5.598-1.426,7.527-0.312l29.812,17.212
					c1.929,1.114,1.687,3.06-0.54,4.346l-28.73,16.587C313.047,300.309,309.677,300.448,307.748,299.335z"/>
				<path style="fill:#FFFFFF;" d="M344.005,281.153l-28.73,16.587c-2.228,1.286-5.598,1.426-7.527,0.312l-29.812-17.212
					c-0.612-0.353-0.98-0.794-1.161-1.267c-0.345,0.935,0.017,1.888,1.161,2.549l29.812,17.212c1.929,1.114,5.299,0.974,7.527-0.312
					l28.73-16.587c1.521-0.878,2.092-2.06,1.702-3.079C345.471,279.997,344.912,280.63,344.005,281.153z"/>
			</g>
		</g>
	</g>
	<g>
		<g>
			
				<linearGradient id="SVGID_00000035530436603020108260000015090653704244612245_" gradientUnits="userSpaceOnUse" x1="275.4658" y1="153.0858" x2="344.6709" y2="153.0858">
				<stop  offset="0.4032" style="stop-color:#FD5A05"/>
				<stop  offset="0.423" style="stop-color:#FA5505"/>
				<stop  offset="0.5505" style="stop-color:#EC3D03"/>
				<stop  offset="0.6846" style="stop-color:#E22C01"/>
				<stop  offset="0.8286" style="stop-color:#DC2100"/>
				<stop  offset="1" style="stop-color:#DA1E00"/>
			</linearGradient>
			<path style="fill:url(#SVGID_00000035530436603020108260000015090653704244612245_);" d="M344.671,82.299h-69.205v121.61h0.018
				c-0.047,0.747,0.365,1.468,1.284,1.999l29.812,17.212c1.929,1.114,5.299,0.974,7.527-0.312l28.73-16.587
				c1.149-0.663,1.759-1.502,1.826-2.312h0.007V82.299z"/>
			
				<linearGradient id="SVGID_00000160904272490976492100000003719315677617972620_" gradientUnits="userSpaceOnUse" x1="279.543" y1="36.2581" x2="353.4243" y2="147.6751">
				<stop  offset="0.4032" style="stop-color:#FC8B04"/>
				<stop  offset="0.5099" style="stop-color:#FC7904"/>
				<stop  offset="0.6558" style="stop-color:#FD6805"/>
				<stop  offset="0.813" style="stop-color:#FD5D05"/>
				<stop  offset="1" style="stop-color:#FD5A05"/>
			</linearGradient>
			<path style="fill:url(#SVGID_00000160904272490976492100000003719315677617972620_);" d="M306.581,101.528l-29.812-17.212
				c-1.929-1.114-1.687-3.06,0.54-4.346l28.73-16.587c2.228-1.286,5.598-1.426,7.527-0.312l29.812,17.212
				c1.929,1.114,1.687,3.06-0.54,4.346l-28.73,16.588C311.88,102.502,308.51,102.642,306.581,101.528z"/>
			<path style="fill:#FFFFFF;" d="M342.838,83.346l-28.73,16.588c-2.228,1.286-5.598,1.426-7.527,0.312l-29.812-17.212
				c-0.612-0.353-0.98-0.794-1.162-1.267c-0.345,0.935,0.017,1.888,1.162,2.549l29.812,17.212c1.929,1.114,5.299,0.974,7.527-0.312
				l28.73-16.587c1.522-0.878,2.092-2.06,1.702-3.079C344.303,82.191,343.744,82.823,342.838,83.346z"/>
		</g>
		<g>
			
				<linearGradient id="SVGID_00000090998293114502825300000000753072048632176272_" gradientUnits="userSpaceOnUse" x1="322.8181" y1="194.0206" x2="392.0232" y2="194.0206">
				<stop  offset="0.4032" style="stop-color:#FD5A05"/>
				<stop  offset="0.423" style="stop-color:#FA5505"/>
				<stop  offset="0.5505" style="stop-color:#EC3D03"/>
				<stop  offset="0.6846" style="stop-color:#E22C01"/>
				<stop  offset="0.8286" style="stop-color:#DC2100"/>
				<stop  offset="1" style="stop-color:#DA1E00"/>
			</linearGradient>
			<path style="fill:url(#SVGID_00000090998293114502825300000000753072048632176272_);" d="M392.023,136.574h-69.205v94.931h0.018
				c-0.047,0.747,0.365,1.468,1.284,1.999l29.812,17.212c1.929,1.114,5.299,0.974,7.527-0.312l28.73-16.587
				c1.149-0.663,1.759-1.502,1.826-2.312h0.007V136.574z"/>
			
				<linearGradient id="SVGID_00000127726158964840582860000002150242394037229707_" gradientUnits="userSpaceOnUse" x1="326.8953" y1="90.5324" x2="400.7766" y2="201.9494">
				<stop  offset="0.4032" style="stop-color:#FC8B04"/>
				<stop  offset="0.5099" style="stop-color:#FC7904"/>
				<stop  offset="0.6558" style="stop-color:#FD6805"/>
				<stop  offset="0.813" style="stop-color:#FD5D05"/>
				<stop  offset="1" style="stop-color:#FD5A05"/>
			</linearGradient>
			<path style="fill:url(#SVGID_00000127726158964840582860000002150242394037229707_);" d="M353.933,155.802l-29.812-17.212
				c-1.929-1.114-1.687-3.06,0.54-4.346l28.73-16.587c2.228-1.286,5.598-1.426,7.527-0.312l29.812,17.212
				c1.929,1.114,1.687,3.06-0.54,4.346l-28.73,16.587C359.232,156.777,355.862,156.916,353.933,155.802z"/>
			<path style="fill:#FFFFFF;" d="M390.19,137.621l-28.73,16.587c-2.228,1.286-5.598,1.426-7.527,0.312l-29.812-17.212
				c-0.612-0.353-0.98-0.794-1.162-1.267c-0.345,0.935,0.017,1.888,1.162,2.549l29.812,17.212c1.929,1.114,5.299,0.974,7.527-0.312
				l28.73-16.587c1.522-0.878,2.092-2.06,1.702-3.079C391.656,136.465,391.096,137.098,390.19,137.621z"/>
		</g>
		<g>
			
				<linearGradient id="SVGID_00000080908290409341777540000014800931482828202674_" gradientUnits="userSpaceOnUse" x1="228.1036" y1="229.6522" x2="297.3087" y2="229.6522">
				<stop  offset="0.4032" style="stop-color:#FD5A05"/>
				<stop  offset="0.423" style="stop-color:#FA5505"/>
				<stop  offset="0.5505" style="stop-color:#EC3D03"/>
				<stop  offset="0.6846" style="stop-color:#E22C01"/>
				<stop  offset="0.8286" style="stop-color:#DC2100"/>
				<stop  offset="1" style="stop-color:#DA1E00"/>
			</linearGradient>
			<path style="fill:url(#SVGID_00000080908290409341777540000014800931482828202674_);" d="M297.309,208.858h-69.205v21.625h0.018
				c-0.047,0.747,0.365,1.468,1.284,1.999l29.812,17.212c1.929,1.114,5.299,0.974,7.527-0.312l28.73-16.587
				c1.149-0.663,1.759-1.502,1.826-2.311h0.007V208.858z"/>
			
				<linearGradient id="SVGID_00000115516066358128076010000011588551960129693108_" gradientUnits="userSpaceOnUse" x1="232.1808" y1="162.817" x2="306.0622" y2="274.2343">
				<stop  offset="0.4032" style="stop-color:#FC8B04"/>
				<stop  offset="0.5099" style="stop-color:#FC7904"/>
				<stop  offset="0.6558" style="stop-color:#FD6805"/>
				<stop  offset="0.813" style="stop-color:#FD5D05"/>
				<stop  offset="1" style="stop-color:#FD5A05"/>
			</linearGradient>
			<path style="fill:url(#SVGID_00000115516066358128076010000011588551960129693108_);" d="M259.218,228.087l-29.812-17.212
				c-1.929-1.114-1.687-3.059,0.54-4.346l28.73-16.587c2.228-1.286,5.598-1.426,7.527-0.312l29.812,17.212
				c1.929,1.114,1.687,3.06-0.54,4.346l-28.73,16.587C264.518,229.061,261.148,229.201,259.218,228.087z"/>
			<path style="fill:#FFFFFF;" d="M295.476,209.906l-28.73,16.587c-2.228,1.286-5.598,1.426-7.527,0.312l-29.812-17.212
				c-0.612-0.353-0.98-0.794-1.162-1.267c-0.345,0.935,0.017,1.888,1.162,2.549l29.812,17.212c1.929,1.114,5.299,0.974,7.527-0.312
				l28.73-16.587c1.521-0.878,2.092-2.06,1.702-3.079C296.941,208.75,296.382,209.382,295.476,209.906z"/>
		</g>
		<g>
			
				<linearGradient id="SVGID_00000071532444179007777460000000735251257114121632_" gradientUnits="userSpaceOnUse" x1="275.4559" y1="236.5861" x2="344.661" y2="236.5861">
				<stop  offset="0.4032" style="stop-color:#FD5A05"/>
				<stop  offset="0.423" style="stop-color:#FA5505"/>
				<stop  offset="0.5505" style="stop-color:#EC3D03"/>
				<stop  offset="0.6846" style="stop-color:#E22C01"/>
				<stop  offset="0.8286" style="stop-color:#DC2100"/>
				<stop  offset="1" style="stop-color:#DA1E00"/>
			</linearGradient>
			<path style="fill:url(#SVGID_00000071532444179007777460000000735251257114121632_);" d="M344.661,195.131h-69.205v62.947h0.018
				c-0.047,0.747,0.365,1.468,1.284,1.999l29.812,17.212c1.929,1.114,5.299,0.974,7.527-0.312l28.73-16.587
				c1.149-0.664,1.759-1.502,1.826-2.311h0.007V195.131z"/>
			
				<linearGradient id="SVGID_00000096754410964558936490000015944578560587248300_" gradientUnits="userSpaceOnUse" x1="279.5331" y1="149.0896" x2="353.4145" y2="260.5068">
				<stop  offset="0.4032" style="stop-color:#FC8B04"/>
				<stop  offset="0.5099" style="stop-color:#FC7904"/>
				<stop  offset="0.6558" style="stop-color:#FD6805"/>
				<stop  offset="0.813" style="stop-color:#FD5D05"/>
				<stop  offset="1" style="stop-color:#FD5A05"/>
			</linearGradient>
			<path style="fill:url(#SVGID_00000096754410964558936490000015944578560587248300_);" d="M306.571,214.36l-29.812-17.212
				c-1.929-1.114-1.687-3.059,0.54-4.346l28.73-16.587c2.228-1.286,5.598-1.426,7.527-0.312l29.812,17.212
				c1.929,1.114,1.687,3.06-0.54,4.346l-28.73,16.587C311.87,215.334,308.5,215.474,306.571,214.36z"/>
			<path style="fill:#FFFFFF;" d="M342.828,196.178l-28.73,16.587c-2.228,1.286-5.598,1.426-7.527,0.312l-29.812-17.212
				c-0.612-0.353-0.98-0.794-1.161-1.267c-0.345,0.935,0.017,1.888,1.161,2.549l29.812,17.212c1.929,1.114,5.299,0.974,7.527-0.312
				l28.73-16.587c1.521-0.878,2.092-2.06,1.702-3.079C344.293,195.023,343.734,195.655,342.828,196.178z"/>
		</g>
	</g>
	<path style="fill:#FFFFFF;" d="M515.267,280.625L388.576,353.8c-5.659,3.267-14.22,3.622-19.121,0.793L91.761,194.266
		c-1.852-1.069-2.914-2.441-3.216-3.909c-0.389,2.095,0.651,4.155,3.216,5.636l277.693,160.326
		c4.901,2.83,13.462,2.475,19.121-0.793l126.692-73.175c3.521-2.033,5.086-4.713,4.589-7.131
		C519.502,277.13,517.965,279.067,515.267,280.625z"/>
</g>
</svg>
